<?xml version="1.0" standalone="no"?><!DOCTYPE svg PUBLIC "-//W3C//DTD SVG 1.1//EN" "http://www.w3.org/Graphics/SVG/1.1/DTD/svg11.dtd"><svg t="1678425186956" class="icon" viewBox="0 0 1024 1024" version="1.1" xmlns="http://www.w3.org/2000/svg" p-id="1610" xmlns:xlink="http://www.w3.org/1999/xlink" width="16" height="16"><path d="M378.197333 42.666667L317.866667 102.997333l90.496 90.496-331.861334 331.904a42.666667 42.666667 0 0 0 0 60.330667l362.026667 362.026667a42.666667 42.666667 0 0 0 60.330667 0l362.069333-362.026667a42.666667 42.666667 0 0 0 0-60.330667L378.197333 42.666667z m-211.2 512.853333l301.696-301.653333 301.696 301.653333-301.653333 301.738667-301.738667-301.696z" fill="#6e6ce9" p-id="1611"></path><path d="M896 682.666667l75.434667 75.434666a106.666667 106.666667 0 1 1-150.869334 0L896 682.666667z" fill="#6e6ce9" p-id="1612"></path></svg>