<?xml version="1.0" standalone="no"?><!DOCTYPE svg PUBLIC "-//W3C//DTD SVG 1.1//EN" "http://www.w3.org/Graphics/SVG/1.1/DTD/svg11.dtd"><svg t="1668228570247" class="icon" viewBox="0 0 1024 1024" version="1.1" xmlns="http://www.w3.org/2000/svg" p-id="5026" xmlns:xlink="http://www.w3.org/1999/xlink" width="128" height="128"><path d="M693.333333 426.666667v170.666666a192.213333 192.213333 0 0 1-192 192h-213.333333a192.213333 192.213333 0 0 1-192-192v-170.666666a192.213333 192.213333 0 0 1 192-192h213.333333a192.213333 192.213333 0 0 1 192 192z m196.266667-96.469334a72.064 72.064 0 0 0-74.069333 3.626667l-48.64 32.426667A21.333333 21.333333 0 0 0 757.333333 384v256a21.333333 21.333333 0 0 0 9.514667 17.749333l48.554667 32.384a72.533333 72.533333 0 0 0 112.597333-60.373333V394.24a72.533333 72.533333 0 0 0-38.442667-64.042667z" fill="#d4237a" p-id="5027"></path></svg>