<?xml version="1.0" standalone="no"?><!DOCTYPE svg PUBLIC "-//W3C//DTD SVG 1.1//EN" "http://www.w3.org/Graphics/SVG/1.1/DTD/svg11.dtd"><svg t="1678425232220" class="icon" viewBox="0 0 1024 1024" version="1.1" xmlns="http://www.w3.org/2000/svg" p-id="2144" xmlns:xlink="http://www.w3.org/1999/xlink" width="16" height="16"><path d="M853.333333 691.2V332.8c51.2-17.066667 85.333333-64 85.333334-119.466667 0-72.533333-55.466667-128-128-128-55.466667 0-102.4 34.133333-119.466667 85.333334H332.8C315.733333 119.466667 268.8 85.333333 213.333333 85.333333 140.8 85.333333 85.333333 140.8 85.333333 213.333333c0 55.466667 34.133333 102.4 85.333334 119.466667v358.4c-51.2 17.066667-85.333333 64-85.333334 119.466667 0 72.533333 55.466667 128 128 128 55.466667 0 102.4-34.133333 119.466667-85.333334h358.4c17.066667 51.2 64 85.333333 119.466667 85.333334 72.533333 0 128-55.466667 128-128 0-55.466667-34.133333-102.4-85.333334-119.466667zM691.2 768H332.8c-12.8-34.133333-42.666667-64-76.8-76.8V332.8c34.133333-12.8 64-42.666667 76.8-76.8h358.4c12.8 34.133333 42.666667 64 76.8 76.8v358.4c-34.133333 12.8-64 42.666667-76.8 76.8zM853.333333 213.333333c0 25.6-17.066667 42.666667-42.666666 42.666667s-42.666667-17.066667-42.666667-42.666667 17.066667-42.666667 42.666667-42.666666 42.666667 17.066667 42.666666 42.666666zM213.333333 170.666667c25.6 0 42.666667 17.066667 42.666667 42.666666s-17.066667 42.666667-42.666667 42.666667-42.666667-17.066667-42.666666-42.666667 17.066667-42.666667 42.666666-42.666666zM170.666667 810.666667c0-25.6 17.066667-42.666667 42.666666-42.666667s42.666667 17.066667 42.666667 42.666667-17.066667 42.666667-42.666667 42.666666-42.666667-17.066667-42.666666-42.666666z m640 42.666666c-25.6 0-42.666667-17.066667-42.666667-42.666666s17.066667-42.666667 42.666667-42.666667 42.666667 17.066667 42.666666 42.666667-17.066667 42.666667-42.666666 42.666666z" fill="#6e6ce9" p-id="2145"></path></svg>